<svg xmlns="http://www.w3.org/2000/svg" viewBox="0 0 200 200" enable-background="new 0 0 200 200"><g><path fill="#174890" d="M-4.545-4.545h209.09v209.09H-4.545z"/><path d="M100-15C36.568-15-15 36.568-15 100s51.568 115 115 115 115-51.568 115-115S163.432-15 100-15zm0 219.71C42.258 204.71-4.71 157.743-4.71 100c0-13.195 2.42-25.784 6.9-37.405 6.536 3.873 23.363-3.027 23.363-3.027s24.573-2.542 22.515 19.006c-2.057 20.942 14.527 37.042 15.495 38.01-.242-.726-3.147-8.352-4.842-12.468-1.815-4.358 17.917 19.49 17.917 19.49s10.652 6.052 15.374 6.415c4.722.485 6.053 6.538 6.053 6.538l-6.052 7.384 11.137 12.47s-3.39 19.85-5.447 31.593c-1.453 7.87 4.116 13.68 7.99 16.706H100zm89.216-49.873c-16.948 27.6-46.484 46.726-80.38 49.51-.24-6.294.122-22.758 9.2-25.542 11.26-3.51 16.464-17.673 21.548-27.237 5.205-9.563.484-10.773-5.568-10.773-5.932 0-9.563-6.9-13.437-11.258-3.875-4.358-22.033-3.51-28.933-4.358-6.9-.848-5.205-8.475-5.205-8.475s-11.258-4.48-9.805-9.563c1.452-5.205 12.71-.847 12.71-.847s24.21-20.7 23-24.574c-.968-2.904-8.594.727-12.59 2.664l12.106-6.537s2.18-8.23-2.542-13.8c-3.51-4.115-8.352-3.994-10.652-3.752l13.195-2.784s-4.72-6.052-3.026-10.773c1.695-4.72.484-6.537-3.026-9.563-3.51-3.027-2.542-6.053-8.23-6.053-5.57 0-6.9-6.536-10.775-3.873-3.752 2.664 5.327 12.47.484 14.648-4.722 2.18-4.358-7.748-8.11-13.68-3.754-5.93-1.333 11.138-2.543 15.01-1.21 3.875-15.737-1.33-24.695-5.688-6.9-3.27-26.268-2.058-34.984-1.21C36.084 11.388 66.226-4.712 100-4.712c3.268 0 6.416.12 9.563.484-.726 1.09-1.09 2.42-.605 3.752 1.695 4.842-12.105 1.695-8.232 6.537 3.874 4.72 9.563 6.295 14.648 12.105 5.205 5.69 5.568 12.953 6.052 18.643.363 5.69-.847 11.622 3.874 17.674 4.72 6.053 7.505 16.827 8.716 7.384 1.21-9.563 4.358-15.13 7.747-16.826 3.39-1.695 2.905-9.926 7.263-8.23 4.358 1.693 5.932 1.935 7.99-5.328 1.937-7.263.968-12.952 0-16.826-.363-1.21-.12-1.816.242-2.18 19.61 12.833 34.62 32.08 42.126 54.717-3.63 1.21-7.505 1.09-11.258 2.42-5.81 2.18-8.837 12.59-9.32 16.827-.485 4.358-3.753 13.437-3.753 13.437s-13.92 4.72-14.77 14.646c-.846 9.927 7.75 23.727 13.8 22.395 6.054-1.21 17.312.485 16.828 9.08-.12 3.51-1.09 6.295-1.694 8.837z" fill="#7dbb24"/></g></svg>