<?xml version="1.0" encoding="UTF-8" standalone="no"?>
<!-- Generator: Adobe Illustrator 21.1.0, SVG Export Plug-In . SVG Version: 6.00 Build 0)  -->

<svg
   xmlns:dc="http://purl.org/dc/elements/1.1/"
   xmlns:cc="http://creativecommons.org/ns#"
   xmlns:rdf="http://www.w3.org/1999/02/22-rdf-syntax-ns#"
   xmlns:svg="http://www.w3.org/2000/svg"
   xmlns="http://www.w3.org/2000/svg"
   xmlns:sodipodi="http://sodipodi.sourceforge.net/DTD/sodipodi-0.dtd"
   xmlns:inkscape="http://www.inkscape.org/namespaces/inkscape"
   version="1.1"
   x="0px"
   y="0px"
   viewBox="0 0 200 200"
   style="enable-background:new 0 0 200 200;"
   xml:space="preserve"
   id="svg2"
   inkscape:version="0.91 r13725"
   sodipodi:docname="xx.svg"><metadata
     id="metadata12"><rdf:RDF><cc:Work
         rdf:about=""><dc:format>image/svg+xml</dc:format><dc:type
           rdf:resource="http://purl.org/dc/dcmitype/StillImage" /></cc:Work></rdf:RDF></metadata><defs
     id="defs10" /><sodipodi:namedview
     pagecolor="#ffffff"
     bordercolor="#666666"
     borderopacity="1"
     objecttolerance="10"
     gridtolerance="10"
     guidetolerance="10"
     inkscape:pageopacity="0"
     inkscape:pageshadow="2"
     inkscape:window-width="1920"
     inkscape:window-height="1017"
     id="namedview8"
     showgrid="false"
     inkscape:zoom="2.36"
     inkscape:cx="24.013195"
     inkscape:cy="68.780022"
     inkscape:window-x="-8"
     inkscape:window-y="-8"
     inkscape:window-maximized="1"
     inkscape:current-layer="svg2" /><g
     id="Layer_1_copy_4"
     transform="matrix(1.0454545,0,0,1.0454545,-4.545455,-4.545445)"><rect
       x="0"
       y="0"
       width="200"
       height="200"
       id="rect5"
       style="fill:#174890" /><path
       id="earth_1_"
       d="m 100,-10 c -60.673684,0 -110,49.326316 -110,110 0,60.67368 49.326316,110 110,110 60.67368,0 110,-49.32632 110,-110 0,-60.673684 -49.32632,-110 -110,-110 z m 0,210.15789 C 44.768421,200.15789 -0.1578948,155.23158 -0.1578948,100 c 0,-12.621052 2.3157896,-24.663158 6.6,-35.778948 6.2526318,3.705264 22.3473688,-2.894736 22.3473688,-2.894736 0,0 23.505263,-2.431579 21.536842,18.178947 -1.968421,20.031577 13.894736,35.431577 14.821052,36.357887 -0.231579,-0.69473 -3.010526,-7.98947 -4.631579,-11.92631 -1.736841,-4.16842 17.136843,18.64211 17.136843,18.64211 0,0 10.189473,5.78947 14.705263,6.13684 4.515789,0.46316 5.789475,6.25263 5.789475,6.25263 l -5.789475,7.06316 10.652635,11.92631 c 0,0 -3.24211,18.98948 -5.21053,30.22106 -1.389474,7.52631 3.93684,13.08421 7.64211,15.97894 -1.85263,0 -3.58948,0 -5.44211,0 z m 85.33684,-47.70526 c -16.21052,26.4 -44.46316,44.69474 -76.88421,47.35789 -0.23158,-6.02104 0.11579,-21.76841 8.8,-24.43157 10.76842,-3.3579 15.74737,-16.90527 20.61053,-26.05263 4.97895,-9.14737 0.46316,-10.30527 -5.32632,-10.30527 -5.67368,0 -9.14736,-6.6 -12.85263,-10.76842 -3.70526,-4.16842 -21.07368,-3.35789 -27.673684,-4.16842 -6.6,-0.81053 -4.978947,-8.10526 -4.978947,-8.10526 0,0 -10.768421,-4.28421 -9.378947,-9.14737 1.389473,-4.97895 12.157894,-0.81053 12.157894,-0.81053 0,0 23.157894,-19.799998 21.999994,-23.505261 -0.92631,-2.778947 -8.22104,0.694737 -12.0421,2.547369 l 11.57895,-6.252632 c 0,0 2.08421,-7.873684 -2.43158,-13.2 -3.3579,-3.936842 -7.98947,-3.821052 -10.18947,-3.589474 l 12.62105,-2.663157 c 0,0 -4.51579,-5.789474 -2.89474,-10.305263 1.62105,-4.51579 0.46316,-6.252632 -2.89474,-9.147369 -3.35789,-2.894737 -2.43157,-5.789474 -7.873679,-5.789474 -5.326316,0 -6.6,-6.252631 -10.305263,-3.705263 -3.589474,2.547369 5.094736,11.926316 0.463157,14.010526 -4.515789,2.084211 -4.168421,-7.410526 -7.757894,-13.08421 C 76.494737,25.663158 78.810526,41.989474 77.652632,45.694737 76.494737,49.4 62.6,44.421052 54.031579,40.252632 47.431579,37.126316 28.905263,38.284211 20.568421,39.094737 38.863158,15.242105 67.694737,-0.157895 100,-0.157895 c 3.12632,0 6.13684,0.11579 9.14737,0.463158 -0.69474,1.0421055 -1.04211,2.3157892 -0.57895,3.589474 1.62106,4.6315793 -11.578946,1.6210521 -7.87368,6.252631 3.70526,4.51579 9.14737,6.021053 14.01052,11.578947 4.97895,5.442106 5.32632,12.389474 5.78948,17.83158 C 120.84211,45 119.68421,50.673684 124.2,56.463158 c 4.51579,5.789474 7.17895,16.094737 8.33684,7.063158 1.1579,-9.147368 4.16842,-14.473684 7.41053,-16.094737 3.24211,-1.621053 2.77895,-9.494737 6.94737,-7.873684 4.16842,1.621053 5.67368,1.852631 7.6421,-5.094737 1.85264,-6.947369 0.92632,-12.389474 0,-16.094737 -0.34736,-1.157895 -0.11579,-1.736842 0.23158,-2.08421 18.7579,12.273684 33.11579,30.68421 40.29474,52.336841 -3.47368,1.157896 -7.17895,1.042106 -10.76842,2.31579 -5.5579,2.08421 -8.45263,12.042106 -8.91579,16.094737 -0.46316,4.168421 -3.58947,12.852631 -3.58947,12.852631 0,0 -13.3158,4.51579 -14.12632,14.01053 -0.81053,9.49474 7.41052,22.69474 13.2,21.42105 5.78947,-1.1579 16.55789,0.46316 16.09473,8.68421 -0.11578,3.35789 -1.0421,6.02105 -1.62105,8.45263 z"
       inkscape:connector-curvature="0"
       style="fill:#7dbb24" /></g></svg>